<svg width="250" height="82" viewBox="0 0 250 82" fill="none" xmlns="http://www.w3.org/2000/svg">
<g clip-path="url(#clip0_192_18)">
<path d="M164.876 41.0765C164.876 18.8225 146.779 0.747465 124.229 0.152893L124.229 82C146.779 81.4054 164.876 63.3304 164.876 41.0765ZM121.975 82L121.975 0.152893C99.4245 0.747465 81.3284 18.8225 81.3284 41.0765C81.3284 63.3304 99.4245 81.4054 121.975 82Z" fill="#69FF5D"/>
<path d="M250 41.0765C250 18.8394 231.904 0.747465 209.353 0.152893V82C218.592 81.7622 250 82 250 82V41.0765ZM207.1 82V0.152893C184.549 0.747465 166.453 18.8225 166.453 41.0765C166.453 63.3304 184.549 81.4054 207.1 82Z" fill="#69FF5D"/>
<path d="M40.5255 0L0 0L0 82H40.5255L40.5255 0Z" fill="#69FF5D"/>
<path d="M43.1082 41.722C73.3204 41.722 88.8512 58.6588 88.8512 81.932H43.1082L43.1082 41.722Z" fill="#69FF5D"/>
<path d="M43.1082 40.2271C73.3204 40.2271 88.8512 23.2733 88.8512 0L43.1082 0L43.1082 40.2271Z" fill="#69FF5D"/>
</g>
<defs>
<clipPath id="clip0_192_18">
<rect width="250" height="82" fill="white"/>
</clipPath>
</defs>
</svg>
