<svg width="351" height="82" viewBox="0 0 351 82" fill="none" xmlns="http://www.w3.org/2000/svg">
<g clip-path="url(#clip0_192_50)">
<path d="M191.796 52.3646L191.811 51.6308C191.851 51.6307 191.891 51.6147 191.939 51.6067L192.616 51.4461L192.567 50.7522C192.502 49.7712 192.51 49.5319 193.02 49.2041C193.06 49.1881 193.163 49.172 193.219 49.1639C193.355 49.1477 193.538 49.1235 193.721 48.9877C194.128 48.6919 194.095 48.2453 194.063 47.8146L194.063 47.7986C194.071 47.7986 194.086 47.7826 194.094 47.7746C194.557 47.4549 194.748 47.319 194.803 46.9679L194.85 46.3138L195.544 46.1293L195.542 44.7015L195.749 44.5895L196.763 45.0666L196.607 42.6339C196.759 42.5539 196.894 42.458 197.014 42.3302C197.284 42.0426 197.435 41.6516 197.443 41.1729L197.809 40.981L197.791 39.5532L198.166 39.4489L198.164 37.9972L198.522 37.7892L198.554 37.3106L198.928 37.1665L198.926 35.7705L198.91 35.619C198.894 35.5472 198.862 35.4037 198.75 35.2603L198.917 35.2122L198.915 33.6408L198.572 33.5536C198.643 33.2264 198.746 32.7557 198.57 32.2055C198.753 32.1494 198.929 32.0534 199.072 31.8777C199.207 31.718 199.406 31.3747 199.246 30.8565L199.037 30.1708L198.336 30.2995C198.336 30.2995 198.312 30.2995 198.296 30.2995C198.272 30.2677 198.24 30.2358 198.208 30.2039C198.192 30.188 198.176 30.1721 198.16 30.1561C198.16 30.0205 198.152 29.869 198.104 29.7095C197.975 29.3029 197.672 29.1119 197.424 29.0086C197.424 28.9608 197.408 28.873 197.408 28.7773C197.831 28.5932 198.269 28.3373 198.739 27.9856C199.193 27.642 199.552 27.2905 199.838 26.947L200.301 26.9623L200.34 26.6272L201.378 26.9766L201.129 25.6449C201.096 25.4854 201.112 25.3418 201.168 25.2699C201.24 25.1821 201.391 25.1659 201.479 25.1658L202.245 25.1407L202.243 23.9841L202.562 23.864L202.601 23.2018C203.166 22.6586 203.069 21.6696 203.02 21.1911L203.004 21.0555C202.931 20.1942 202.627 19.8676 202.172 19.629C202.093 19.5892 202.061 19.5653 202.005 19.5175C201.925 19.4379 201.837 19.2865 201.876 18.8238L201.947 17.9542L201.141 17.9554L201.141 17.7002L200.749 17.4774L200.764 16.5441L200.006 16.5452L200.005 15.8752L199.239 15.8445L199.207 15.669L198.665 15.5263C198.665 15.5263 198.577 15.5025 198.513 15.4946L198.512 15.016L197.595 15.1609C197.268 15.2093 197.148 15.2015 197.156 15.2174C197.117 15.1856 197.085 15.1378 197.037 15.09C196.941 14.9864 196.837 14.8669 196.693 14.7315C196.669 14.7156 196.653 14.6917 196.629 14.6758L196.819 13.7423L194.873 13.7452L194.762 14.1043L194.761 13.3944L194.011 13.3955L194.01 12.8531L193.388 12.7104C192.997 12.6233 192.718 12.7035 192.526 12.8154C192.279 12.6483 191.96 12.6567 191.178 12.6898C190.875 12.6983 190.381 12.7229 190.293 12.7151C190.253 12.6992 190.213 12.6673 190.181 12.6435C189.965 12.5002 189.574 12.2455 189.032 12.3421L188.346 12.3431L187.086 12.4088L187.126 12.7198C187.07 12.7279 187.014 12.736 186.959 12.752C186.791 12.8001 186.648 12.8801 186.536 12.952L184.936 9.93927L184.94 12.6912L184.247 12.6922L184.207 12.7561L183.896 12.7007C182.922 12.5267 182.412 12.9822 182.11 13.2618C182.094 13.2778 182.078 13.2937 182.062 13.3097C181.774 13.0549 181.375 12.9757 180.849 13.0643C180.745 13.0804 180.61 13.1205 180.474 13.2164C180.283 13.089 179.995 12.9938 179.597 13.0741L178.951 13.2027L178.952 14.0881L177.459 12.9736L177.461 14.1621L176.335 13.3183L176.336 14.4669L174.94 14.477C174.765 14.4374 174.566 14.4457 174.342 14.4939L173.704 14.6304L173.706 15.7551L173.435 15.9071L171.838 14.7688L171.841 16.6194C171.418 16.6519 170.979 16.7244 170.605 16.8685C170.358 16.9646 170.174 17.1005 170.023 17.2124C169.776 17.3962 169.744 17.4122 169.489 17.3408L168.364 17.0234L168.469 18.156C168.373 18.204 168.286 18.252 168.198 18.3C168.015 18.4039 168.007 18.4039 167.943 18.3881L166.977 18.1821L166.978 18.4374L165.852 17.8329L165.855 19.7632C165.664 19.7635 165.456 19.7797 165.249 19.8359C164.85 19.9482 164.611 20.2357 164.452 20.4194C164.436 20.4354 164.428 20.4513 164.412 20.4673C164.388 20.4673 164.364 20.4674 164.341 20.4674C164.157 20.4757 163.902 20.492 163.655 20.6439C163.495 20.7399 163.432 20.8357 163.257 21.0753C163.201 21.1471 163.145 21.235 163.097 21.2988C162.818 21.4428 162.372 21.5552 162.22 21.5395L161.359 21.4769L161.36 22.2666C160.969 22.347 160.634 22.523 160.364 22.7946C160.108 22.5876 159.773 22.5322 159.366 22.6206L158.744 22.7571L158.731 24.185C158.683 24.209 158.635 24.225 158.587 24.249C158.356 24.353 158.252 24.3931 158.149 24.3773L157.247 24.259L157.248 25.0726L156.498 25.0737L155.244 23.903L155.767 26.359C155.767 26.359 155.719 26.399 155.695 26.423C155.671 26.4469 155.647 26.4709 155.623 26.5028C155.607 26.5029 155.591 26.5029 155.583 26.5029C155.368 26.4873 155.145 26.4717 154.921 26.5039L154.371 26.6004L154.276 27.1589L154.276 27.1749L154.069 27.1593L153.926 27.7816C153.862 27.9253 153.536 28.2289 153.408 28.277L153.337 28.293C153.145 28.2295 152.914 28.2219 152.659 28.2781L152.029 28.4067L152.015 29.8425C151.967 29.8665 151.919 29.8825 151.871 29.9065C151.632 30.0106 151.544 30.0506 151.425 30.0348L150.34 29.9008L150.533 30.9535C150.533 30.9535 150.485 30.9934 150.461 31.0174C150.429 31.0493 150.397 31.0813 150.373 31.1053C150.365 31.1053 150.35 31.1053 150.342 31.1053L149.392 30.9312L149.394 32.1517C149.004 32.5032 148.613 32.8548 148.231 33.2143L147.593 33.2153L147.561 33.5663L146.772 33.5994L146.773 34.2694L146.023 34.2705L146.025 35.3314C145.451 35.9066 144.894 36.4817 144.36 37.0569L143.786 36.978L143.786 37.4645L143.035 36.7557L143.038 38.5106C142.656 38.9419 142.29 39.3732 141.931 39.7965C135.697 47.2959 127.439 61.9933 130.246 71.7365C131.456 75.9384 134.524 78.8771 139.376 80.4731C141.579 81.1957 143.86 81.5273 146.198 81.5238C149.97 81.5182 153.854 80.6429 157.688 79.1934L157.784 79.265L157.784 79.1613C158.031 79.0652 158.27 78.9691 158.517 78.873L158.909 79.1197L158.908 78.7209C159.689 78.4007 160.463 78.0485 161.236 77.6884L161.523 77.6322L161.523 77.5524C163.555 76.5762 165.548 75.4565 167.484 74.2411C167.572 74.225 167.652 74.2169 167.747 74.1849L168.194 74.0087L168.217 73.7774C168.345 73.6974 168.464 73.6175 168.584 73.5375L169.597 73.5201L169.453 72.9619C170.186 72.4663 170.911 71.9547 171.62 71.4351L172.25 71.5299L172.329 70.9156C172.568 70.7397 172.799 70.5559 173.038 70.3801C173.142 70.364 173.245 70.3399 173.349 70.2999L173.971 70.0516L173.899 69.7088C174.193 69.477 174.488 69.2452 174.775 69.0135L175.35 69.1482L175.349 68.55L176.475 69.3938L176.472 67.8942L176.736 67.8938L176.966 67.5265L178.235 67.5406L177.93 66.5041C177.906 66.4164 177.906 66.3845 178.009 66.2567C178.328 65.977 178.639 65.6894 178.941 65.4018L179.803 65.4005L179.81 64.882L180.568 64.8809L180.566 63.8519C180.638 63.78 180.702 63.7161 180.773 63.6442L181.691 63.6428L181.69 63.3955L182.329 63.6977L182.462 62.2218L183.164 62.0293L183.164 61.8778C183.164 61.8778 183.243 61.8697 183.283 61.8616L183.897 61.7411L183.936 60.9832L184.159 60.9111L184.183 60.8313C184.239 60.8312 184.295 60.8232 184.351 60.8151L185.052 60.7343L185.05 59.4102L186.183 59.4085L186.173 58.1242L186.564 57.9083L186.563 57.6451L188.199 57.6426L187.823 56.9412L188.572 56.9401L188.379 55.8795L188.778 55.8789L188.777 54.9696L189.167 54.7536L189.166 54.0437C189.318 53.9876 189.453 53.9077 189.557 53.8517C189.597 53.8277 189.645 53.8037 189.684 53.7797C189.684 53.7797 189.692 53.7797 189.7 53.7797C189.844 53.7794 190.091 53.7711 190.322 53.5873C190.665 53.3235 190.656 52.9566 190.648 52.7094C190.648 52.6296 190.648 52.478 190.632 52.4781C190.679 52.4222 190.839 52.3422 190.911 52.342L191.732 52.3887L191.796 52.3646ZM182.111 46.1574L182.024 46.5085C182.024 46.5085 182.024 46.5165 182.024 46.5245L180.628 46.5266L181.059 47.0045L180.868 47.0527L180.869 47.8025L180.495 48.0104L180.496 48.6565C180.416 48.7683 180.336 48.8801 180.249 48.9919L179.738 48.9927L179.747 49.6467C179.62 49.8144 179.493 49.9742 179.365 50.1419L179.285 50.1898L179.286 50.2377C178.975 50.653 178.649 51.0682 178.322 51.4755L176.575 51.3984L176.983 52.1635L176.233 52.1646L176.833 53.2964C176.825 53.3044 176.817 53.3204 176.809 53.3284C176.634 53.3845 176.435 53.4805 176.276 53.6801C176.14 53.8479 176.069 54.0474 176.029 54.2389C176.021 54.2469 176.013 54.2628 176.005 54.2708L174.53 54.273L174.524 55.9561C174.397 56.0999 174.269 56.2357 174.142 56.3715C174.062 56.4035 173.998 56.4116 173.934 56.4037L173.033 56.2854L173.033 56.6443L172.275 56.2865L172.277 57.8021L171.169 57.8037L171.169 58.1547C171.129 58.1548 171.089 58.1628 171.05 58.1708L170.412 58.2994L170.413 59.2487L169.304 59.0748L169.29 60.4309C169.067 60.519 168.868 60.615 168.676 60.711C168.23 60.935 167.967 61.055 167.648 60.9917L167.009 60.8571L166.747 61.4557C166.652 61.6792 166.62 61.8707 166.636 62.0382L165.567 62.0398L165.553 63.2522C165.458 63.3002 165.386 63.3482 165.322 63.3882C165.282 63.4122 165.251 63.4361 165.251 63.4441C165.211 63.4442 165.171 63.4442 165.123 63.4443C164.979 63.4445 164.78 63.4528 164.573 63.5169C164.381 63.581 164.23 63.669 164.11 63.7489C164.062 63.7809 163.983 63.8289 163.967 63.8289L162.866 63.5434L162.955 64.6361C162.732 64.7242 162.588 64.7643 162.397 64.8124C162.269 64.8445 162.134 64.8766 161.966 64.9327C161.799 64.9808 161.64 65.0608 161.48 65.1408C161.225 65.2688 161.153 65.3008 160.978 65.2453L160.076 64.9834L159.989 65.6536L159.574 65.4627L159.575 66.2445C158.69 66.2617 158.276 66.7729 158.013 67.0923C157.926 67.1961 157.846 67.3 157.798 67.324C157.75 67.34 157.591 67.3323 157.503 67.3244C157.232 67.3089 156.913 67.3014 156.61 67.4933C156.482 67.5732 156.419 67.6531 156.291 67.8367C156.251 67.8049 156.204 67.773 156.156 67.7492C155.972 67.6537 155.669 67.5744 155.254 67.7266C155.087 67.671 154.879 67.6474 154.616 67.6957L153.97 67.8243L153.97 68.0396L152.319 68.0421L152.687 68.7435L151.052 68.7459L150.837 69.1052L148.891 69.1081L148.827 69.1082L148.825 67.9596L147.304 69.0946C147.128 69.0948 146.953 69.0951 146.785 69.1113C146.578 69.1196 146.338 69.1359 146.195 69.1122C146.195 69.1122 146.195 69.1122 146.187 69.1122C146.059 69.0167 145.82 68.8256 145.453 68.7703C145.317 68.7466 145.189 68.7547 145.062 68.739C145.03 68.6274 144.974 68.5078 144.886 68.3962C144.79 68.2688 144.614 68.0856 144.406 67.8785C144.167 67.6316 143.671 67.1138 143.591 66.9305C143.551 66.8029 143.535 66.6594 143.519 66.4999C143.454 66.0373 143.357 65.3275 142.87 64.8497L143.229 64.6577L143.211 63.0943C143.553 62.8226 143.688 62.3677 143.583 61.7776L143.567 61.6979C143.647 61.61 143.703 61.5222 143.75 61.4423C143.989 61.0352 144.012 60.5725 143.964 60.1418L144.323 60.1413L144.32 58.3864L145.078 58.3853L145.067 56.4789L145.219 56.4228L145.346 56.0956C145.433 55.8801 145.513 55.6247 145.592 55.3614C145.743 54.8905 145.909 54.3479 146.148 54.0045C146.22 53.9007 146.308 53.8128 146.379 53.7409C146.634 53.4773 146.873 53.1898 146.96 52.7589L147.638 52.7579L147.723 50.9232L149.142 50.3866L149.171 48.3047C149.282 48.2407 149.378 48.1608 149.474 48.0729C149.784 47.7534 149.903 47.3384 149.927 46.9475L151.378 46.5864L151.377 46.044L152.152 46.7607L152.149 45.0059L152.739 45.005L152.874 44.3746C152.874 44.3746 152.882 44.3267 152.89 44.3028L153.265 44.3022L153.263 42.8266C153.589 42.7064 153.821 42.5067 153.996 42.3628C154.195 42.195 154.251 42.179 154.299 42.1709L155.12 42.2016L155.118 40.7738L156.067 40.7724L155.874 39.8394C155.874 39.8394 155.914 39.8074 155.938 39.7835C155.978 39.7435 156.018 39.7036 156.05 39.6636C156.082 39.6636 156.106 39.6636 156.145 39.6635L156.688 39.6866L156.839 39.3434L157.764 39.342L157.763 38.2891C157.906 38.2889 158.05 38.2887 158.177 38.2805L158.823 38.2077L158.91 37.2185L159.611 37.034L159.611 36.8824C159.667 36.8823 159.715 36.8663 159.771 36.8503L160.369 36.6978L160.368 36.1634L160.918 36.1626L160.917 35.4686L161.699 35.4674L161.778 35.1243C161.826 35.1242 161.882 35.1242 161.93 35.1081L162.607 35.0034L162.606 34.142C162.789 34.0141 162.981 33.8861 163.164 33.7503L164.081 33.5176L164.08 33.1108C164.311 32.9589 164.542 32.799 164.774 32.6471L165.444 32.6461L165.347 32.2713C165.722 32.0235 166.104 31.7836 166.487 31.5437L167.133 31.5268L167.093 31.1679C167.156 31.1279 167.212 31.0959 167.276 31.056L168.202 31.924L168.2 30.5042C168.455 30.3602 168.71 30.2163 168.957 30.0723L169.316 30.1276L169.316 29.8644C170.121 29.4165 170.934 28.9925 171.747 28.5925L171.939 28.64L171.938 28.4965C174.792 27.1042 177.678 25.9991 180.437 25.3808L180.438 26.0827L179.864 26.0836L179.713 26.6901C179.689 26.7699 179.673 26.8736 179.338 26.8023L178.373 26.6043L178.374 27.4897L177.903 27.4904L177.633 27.9375L176.469 28.1387L176.429 28.5615L176.007 28.5621L175.808 28.9214L174.747 28.923L174.532 29.3939C174.437 29.6174 174.405 29.8169 174.421 29.9764L173.624 29.9776L173.417 30.4485C173.322 30.672 173.29 30.8715 173.306 31.031L172.612 31.032L172.598 32.0849L171.928 32.086L172.033 32.8436C171.961 32.9075 171.881 32.9714 171.818 33.0433C169.763 35.0725 168.076 38.146 169.228 40.0906C169.828 41.1107 171.376 42.0735 175.291 40.8871C176.336 40.5745 177.938 39.8063 179.636 38.9901C180.401 38.6221 181.262 38.214 182.107 37.8298L182.282 37.8295L182.266 37.7578C182.991 37.4297 183.701 37.1335 184.347 36.8932L184.371 36.8932C185.311 36.5408 186.093 36.3322 186.516 36.4034C186.627 36.5468 186.604 37.0414 186.438 37.8792L186.414 38.0148C186.272 38.7409 185.97 39.5869 185.549 40.5208L184.448 40.5224L185.143 41.3669C185.111 41.4307 185.079 41.4946 185.048 41.5585L184.433 41.5275L184.594 42.4126C184.554 42.4925 184.507 42.5643 184.467 42.6442L184.236 42.6445L184.236 43.0433C184.109 43.2589 183.982 43.4745 183.846 43.69L183.463 43.6906L183.472 44.2968C183.393 44.4166 183.321 44.5363 183.242 44.6641C183.002 44.6884 182.755 44.8004 182.564 45.0161L182.357 45.2477L182.358 46.0055L182.358 46.0214L182.111 46.1494L182.111 46.1574ZM184.353 24.8644C184.432 24.8643 184.504 24.8642 184.584 24.8641L184.584 24.904L184.353 24.8644ZM183.467 24.9216L183.468 25.3842L181.314 25.3875L181.283 25.6029L180.82 25.3084C181.721 25.1236 182.598 24.9867 183.467 24.9056L183.467 24.9216Z" fill="#69FF5D" stroke="#69FF5D" stroke-width="0.5" stroke-linejoin="round"/>
<path d="M127.482 42.4265L127.481 42.3468C128.223 41.9867 128.964 41.6187 129.697 41.2427L130.399 41.3692L130.287 40.9466C131.212 40.4746 132.232 39.9546 133.308 39.3787L133.475 39.3784L133.475 39.2907C133.993 39.0107 134.519 38.7228 135.053 38.4189L135.716 38.6253L135.715 38.043C135.715 38.043 135.787 38.003 135.826 37.979L136.832 38.5199L136.831 37.7302C137.094 37.4347 137.285 37.219 137.548 36.9315L138.337 36.8346L138.337 36.4198C138.464 36.3319 138.592 36.2519 138.719 36.164L139.837 36.8323L139.835 35.3886C139.938 35.3166 140.042 35.2367 140.146 35.1647L140.959 35.1635L140.959 34.8365C141.158 34.8601 141.334 34.8279 141.477 34.7878L142.091 34.6354L142.09 33.6941C142.193 33.5823 142.249 33.5184 142.36 33.4066L145.152 33.3784L144.074 32.367L144.09 32.3431L144.943 32.3418L145.062 31.6955C145.101 31.4801 145.085 31.2647 145.061 31.0654C145.077 31.0494 145.101 31.0334 145.117 31.0174C145.149 30.9855 145.18 30.9535 145.212 30.9216C145.228 30.9215 145.236 30.9215 145.252 30.9215L146.194 31.0956L146.193 30.936C146.193 30.936 146.257 30.928 146.289 30.9199L146.895 30.7994L146.942 30.0176L147.221 29.9135L147.308 29.4746C147.332 29.347 147.332 29.2273 147.331 29.1077L148.457 29.6324L148.439 28.2286L148.797 28.0286L148.829 27.55L149.211 27.4058L149.21 26.7039L149.952 26.7028L149.934 25.4186L150.133 25.3146L151.53 25.9745L151.025 24.2683C150.985 24.1328 151.025 24.037 151.16 23.7257C151.271 23.4862 151.407 23.1829 151.446 22.8159L151.558 22.8158L151.748 22.305C151.923 21.8341 151.938 21.4352 151.914 21.0683L153.469 21.066L152.175 19.5205L152.174 19.0977L152.565 18.8977L152.562 17.4141L152.187 17.2232L152.187 16.9919L152.562 16.8557L152.559 15.3003L152.256 15.1492C152.255 14.3116 151.624 13.9536 151.392 13.8184C151.384 13.8184 151.377 13.8104 151.369 13.8024C151.336 13.6669 151.288 13.4675 151.24 13.2682C151.152 12.9014 151.063 12.5266 151.015 12.3911L150.919 12.1041L150.68 11.9689L150.694 10.6128C150.694 10.4932 150.693 10.3655 150.653 10.23L150.509 9.61601L149.169 9.61802L149.168 9.01179L149.087 8.10258L148.305 8.2234C148.305 8.2234 148.281 8.19153 148.273 8.17559C148.145 7.98434 147.937 7.66559 147.53 7.55453C147.235 7.4752 147.052 7.45155 146.924 7.45174C146.9 7.43582 146.82 7.38011 146.581 7.17307C145.942 6.60769 145.535 6.45675 145.112 6.33773C144.992 6.306 144.904 6.27423 144.808 6.23449C144.792 6.21058 144.776 6.19465 144.752 6.17076C144.609 5.98751 144.433 5.77241 144.353 5.69276C144.329 5.66887 144.313 5.65294 144.289 5.63702L144.447 4.87103L143.657 4.72066C143.394 4.67319 143.187 4.68945 143.019 4.75352C142.604 4.59461 142.301 4.67483 142.118 4.7788C142.078 4.80279 142.038 4.82678 141.998 4.85077C141.871 4.76322 141.735 4.73152 141.663 4.71567L141.591 4.71578L141.073 4.71656L140.857 4.34995L139.198 4.3684L138.966 4.00182L138.695 4.00223L138.692 2.25535L137.792 3.10222L137.345 2.98324C136.803 2.84048 136.452 3.04839 136.301 3.18422C136.237 3.24016 136.181 3.30405 136.141 3.36792C135.99 3.32029 135.806 3.30461 135.591 3.29696L135.519 3.07372L135.056 2.9787C134.633 2.89159 134.282 2.96391 134.027 3.19561C133.964 3.25154 133.908 3.31544 133.868 3.37931L133.046 3.34066L131.473 2.20236L131.475 2.96812C131.171 2.92869 130.645 2.93745 130.382 2.96976C130.278 2.98586 129.991 3.05808 129.8 3.33755C129.744 3.33764 129.688 3.33772 129.64 3.33779C129.585 3.33788 129.529 3.33796 129.473 3.33804L129.129 2.73234L128.459 3.04443C128.085 3.22048 127.766 3.1731 127.231 3.07818C126.976 3.0307 126.704 2.98325 126.409 2.97571C125.875 2.96056 125.34 2.96934 124.806 2.97812C124.312 2.98684 123.809 3.00354 123.314 2.98036L122.493 2.95766L122.493 3.33256L121.081 3.33468C120.499 3.33555 120.028 2.86564 120.011 2.28337L119.969 0.584409L118.823 2.75577C118.577 3.21878 118.067 3.46683 117.548 3.37188C117.309 3.32438 117.045 3.29287 116.822 3.30118C116.806 3.28525 116.798 3.26931 116.782 3.25338L116.622 3.07814L116.391 3.01467C115.856 2.87189 115.521 3.0399 115.338 3.19971C115.131 3.38349 115.044 3.61494 115.012 3.83035C114.916 3.87836 114.829 3.93433 114.741 3.99029C114.581 3.77516 114.278 3.38477 113.687 3.33779C113.448 3.31422 113.009 3.26702 112.675 3.58659C112.563 3.69045 112.483 3.81022 112.436 3.94589C112.388 3.81834 112.308 3.69881 112.188 3.58732C111.932 3.35638 111.589 3.27712 111.159 3.36551L110.521 3.4941L110.522 4.12425L107.467 4.46385C107.427 4.40807 107.379 4.35231 107.323 4.29655C107.068 4.06562 106.725 3.99434 106.294 4.07475L105.656 4.20334L105.656 4.5224C105.425 4.38715 105.138 4.35567 104.795 4.42797L104.157 4.55656L104.158 5.45791C103.871 5.45037 103.584 5.44282 103.297 5.45921C102.842 5.49179 102.356 5.57229 101.877 5.65277C101.518 5.71713 101.16 5.7735 100.841 5.80589C100.633 5.83013 100.442 5.82244 100.274 5.81471C99.8275 5.79943 99.2691 5.78431 98.8709 6.2316C98.855 6.24758 98.847 6.26354 98.8311 6.27952L97.0586 5.17343L97.0612 6.87245L94.2454 6.87667L94.0948 7.48312C94.0789 7.55493 94.0551 7.58687 94.0551 7.58687C94.0551 7.58687 93.9833 7.62687 93.7759 7.6192L92.107 6.38533L92.1726 7.60565C92.045 7.63775 91.9255 7.70174 91.8219 7.78166C91.5105 7.59069 91.1115 7.48759 90.5693 7.61603L89.3095 7.92103L89.8449 8.55038L88.0898 8.41742L88.0903 8.7285L86.9647 8.13194L86.966 9.01735L85.8413 9.01904L85.8423 9.72098L85.1085 9.72208L84.9575 10.0733L84.447 10.098L84.2321 10.4333L82.6926 10.4197L82.8926 10.7863L82.382 10.7552L82.1755 11.2979C82.0086 11.7368 82.0968 12.0558 82.2088 12.247C82.2088 12.247 82.2168 12.255 82.2248 12.263C80.4151 12.9357 78.7813 13.8635 78.0177 15.3483C77.6121 16.1306 77.4938 17.0082 77.6388 17.9572C77.5429 17.8297 77.4789 17.7341 77.3512 17.6545C77.0398 17.4556 76.6968 17.4561 76.4017 17.4804C76.3617 17.4406 76.3218 17.3928 76.2739 17.361C76.0982 17.2256 75.9146 17.1701 75.7471 17.1464C75.6431 16.9392 75.4352 16.6124 75.0043 16.4855C74.7729 16.422 74.5655 16.4223 74.3741 16.4465L74.3735 16.0956L72.9457 16.0977C72.5304 15.7154 71.9318 15.5169 71.3893 15.438L71.3878 14.4728L70.7415 14.3461C70.566 14.3145 70.4144 14.3068 70.2868 14.3309L68.7553 14.3332C68.7152 14.1737 68.6272 14.0063 68.4675 13.871C68.2119 13.64 67.8688 13.5687 67.4382 13.6492L67.183 13.7054L67.0556 13.8491C66.9356 13.6499 66.7439 13.4189 66.4167 13.3236C66.3209 13.2999 66.2331 13.2761 66.1534 13.2682L66.1529 12.9332L64.047 12.9443L63.8231 12.5777L62.1162 12.5962C61.8844 12.3094 61.5808 11.9908 61.0622 11.8799L60.9101 11.5292L58.8601 11.5323C58.788 11.3409 58.6841 11.1496 58.4844 11.0143C58.2928 10.879 57.3032 10.5216 57.1994 10.4978C56.8803 10.4265 56.6331 10.4986 56.4737 10.5866L56.6881 9.96412L55.7785 9.79C55.7785 9.79 55.7067 9.78213 55.6748 9.7742L55.6736 8.98452L54.1359 10.1355L53.8328 10.1359C53.8243 9.84877 53.7441 9.5378 53.4725 9.29891C53.3368 9.17946 53.0653 9.01236 52.6586 9.06083L52.6583 8.87737L52.0678 8.74265C51.5651 8.63173 51.2463 8.78377 51.071 8.93558C51.0631 8.9356 51.0551 8.95156 51.0471 8.95955C50.9513 8.8879 50.8316 8.82427 50.6879 8.7846L48.7017 8.7477L48.4778 8.39706L48.1667 8.38158L48.1423 8.03064L47.4004 8.03175L47.2008 7.89645C46.9212 7.63364 46.666 7.642 45.7408 7.67529C45.4456 7.68371 44.9431 7.7084 44.8155 7.69264C44.5602 7.65314 44.1292 7.51818 43.7063 7.39119C43.1636 7.22449 42.605 7.05782 42.1742 6.99465C41.7593 6.93944 41.3286 6.96402 40.9218 6.98058C40.7384 6.98883 40.5549 7.00506 40.4034 7.00529C40.3874 6.98138 40.3634 6.94951 40.3395 6.92562C40.0198 6.51929 39.8919 6.34399 39.5568 6.28866C38.9504 6.18587 38.5279 6.34604 38.249 6.51397C38.0973 6.4424 37.9137 6.37089 37.7142 6.31535L37.7132 5.61341L36.7479 5.57498C36.365 5.55162 35.9343 5.56822 35.6078 5.94361L35.2409 5.94416L35.017 5.57757L32.5443 5.59723L31.945 4.88024L28.1322 4.90191L27.8923 4.50344L27.4058 4.53607C27.1745 4.55237 26.9351 4.54476 26.6958 4.53714C26.5044 4.53743 26.3209 4.52175 26.1295 4.53001L26.1293 4.37846L25.5387 4.21981C24.8365 4.02942 24.3344 4.27745 23.9996 4.43749C23.8721 4.50149 23.7605 4.55749 23.6807 4.55761C22.8672 4.63062 22.0375 4.54413 21.152 4.45771C20.1467 4.35552 19.1017 4.25339 18.041 4.39059C17.5784 4.44712 17.2118 4.64708 16.9488 4.78308C16.8531 4.83108 16.7336 4.90305 16.6937 4.91109C16.5501 4.92726 15.9439 4.91221 15.577 4.89681C14.9627 4.8738 14.6038 4.86636 14.3645 4.89863L12.6575 4.90119L12.6417 5.01289L11.436 4.18512L11.4387 5.95593L11.1595 5.95635L11.0877 5.96444C11.008 5.98051 10.8804 6.01261 10.7529 6.10054C10.721 6.07666 10.689 6.05278 10.6491 6.03688C10.3697 5.88575 10.0506 5.87825 9.69986 6.02235L9.19764 6.22252L9.19845 6.76493L8.87978 7.02864L7.34027 7.01499L7.34187 8.08386C7.34187 8.08386 7.30997 8.08391 7.29401 8.08393L6.58422 8.16476L6.58447 8.33227C5.08568 8.87693 3.77063 9.60478 2.7431 10.5795C0.759606 12.3692 -0.0423227 14.8432 0.297277 17.8977C0.93602 23.624 7.86537 27.3785 13.8278 30.0019C17.276 31.5203 20.8835 32.8629 24.3712 34.1579C27.3721 35.2701 30.4687 36.422 33.4459 37.6859C46.1847 43.0749 54.7904 47.6486 57.6663 50.5557C58.0258 50.9141 58.8966 51.7982 59.0729 52.3404C58.9054 52.3566 58.738 52.4047 58.5786 52.5166C58.4192 52.6205 58.3317 52.7563 58.284 52.876C58.0684 52.7008 57.7891 52.6374 57.4462 52.7018L56.6965 52.7508L56.6974 53.3969L56.2667 53.3975L56.1477 53.8045C55.9881 53.8127 55.7329 53.7971 55.5733 53.7814L55.3978 53.7657C55.342 53.7658 55.2701 53.734 55.1744 53.7102C55.0148 53.6626 54.7913 53.5912 54.5201 53.5836L53.7065 53.5688L53.7068 53.8241L52.5891 53.1238L52.5906 54.1209L51.1627 54.1231C50.9872 54.0834 50.7878 54.0917 50.5725 54.1479L50.134 54.2602L50.0705 54.4757L49.7674 54.4761L49.217 54.5248L48.2492 52.7076L47.9083 54.104C47.8046 54.1042 47.7009 54.1203 47.5813 54.1524L46.9833 54.3048L46.984 54.7914C46.9201 54.7596 46.8642 54.7198 46.8003 54.672L45.8739 53.8837L45.5802 54.8493L40.7703 54.8565C40.7703 54.8565 40.7144 54.8008 40.6984 54.7849L40.8887 54.0188L40.1306 53.8205C39.6598 53.6936 39.341 53.8377 39.1657 53.9656L38.647 53.8228C38.1043 53.672 37.7617 53.8879 37.6023 54.0237C37.4988 54.1116 37.4191 54.2155 37.3715 54.3272L37.3712 54.1517L35.6961 54.1542L35.5195 53.4366L34.7628 54.1556L34.6512 54.1558L34.6513 54.2595L34.5478 54.3633L33.9559 53.2555L33.4786 54.1576C33.1117 54.1581 32.8168 54.2942 32.6175 54.4061L32.5134 54.159L31.3967 54.1607L31.3965 54.0011L30.798 53.8425C30.6783 53.8108 30.5666 53.795 30.4629 53.7952L30.1178 52.3998L29.1713 54.1879C28.7883 54.0928 28.4215 54.213 28.1823 54.2931C28.1265 54.3092 28.0707 54.3332 28.0628 54.3412C27.9511 54.3413 27.7436 54.3018 27.5442 54.2622C27.0654 54.1672 26.475 54.0564 25.9009 54.2088L24.8165 54.4896L23.8103 53.7413L23.811 54.188L23.0441 53.4713L23.0636 55.8164L22.9999 55.8484L21.467 54.9254L21.5976 56.9592C20.1462 57.1528 18.3602 57.666 17.636 58.7918C17.1187 59.5903 16.9603 60.3642 17.1688 61.0818C17.5056 62.2459 18.7191 62.946 19.8685 63.4787C22.6782 64.7827 26.4909 64.6653 29.8649 64.5645C31.2049 64.5226 32.4651 64.4888 33.6138 64.527C35.5044 64.6039 37.3631 64.7367 39.1581 64.8696C43.5298 65.1981 47.6541 65.503 52.3117 64.9855C52.527 64.9612 53.4777 65.9011 53.4777 65.9011L53.4774 65.7336C53.4766 65.2151 53.8589 64.7838 54.3693 64.6953C57.6229 64.1639 60.4533 63.2663 62.7487 62.0664L63.7219 62.0649L63.2422 61.3637L64.694 61.3615L64.6935 61.0185L66.4643 61.0158L66.5037 60.6728C66.5754 60.6647 66.6392 60.6487 66.695 60.6326L67.309 60.4801L67.3079 59.7303L67.5151 59.6104L69.1662 59.592L69.1646 58.539L69.9144 58.5379L69.9134 57.828L71.1896 57.8261L71.0056 57.4754L73.1196 57.5919L71.8495 56.3893L71.745 55.8311C71.8804 55.6953 72.1194 55.4556 72.1666 55.0408C72.1825 55.0328 72.1905 55.0168 72.1984 55.0088C72.2064 55.0008 72.2223 54.9849 72.2303 54.9769C72.2463 54.9768 72.2702 54.9768 72.3021 54.9927L73.2756 55.2066L73.2741 54.2095L73.2251 53.4598C73.3844 53.3 73.5118 53.1323 73.5753 52.9249C73.8055 52.1907 73.6531 51.6086 73.4928 51.1302L76.7792 51.1253L73.6422 49.6543L73.6389 47.4927L73.2717 47.3018C73.2952 47.0146 73.2867 46.6716 73.0549 46.3609C72.9111 46.1776 72.7275 46.0981 72.5918 46.0585C72.5199 45.9868 72.456 45.9151 72.3921 45.8434C72.2083 45.6442 72.0006 45.4372 71.761 45.2381L71.7582 43.3875L70.8252 43.5644C70.8093 43.5644 70.8013 43.5644 70.7854 43.5645C70.7614 43.5326 70.7294 43.5007 70.6975 43.4769C70.6815 43.4609 70.6576 43.437 70.6336 43.4211C70.6493 43.2456 70.6649 43.0382 70.6327 42.8229L70.5118 41.9855L69.6825 42.1543C69.6825 42.1543 69.6585 42.1543 69.6426 42.1543C69.5786 42.0587 69.4987 41.9471 69.3789 41.8436C69.315 41.7879 68.9157 41.4535 68.4048 41.2389L68.3867 39.7951L67.7404 39.6764C67.4931 39.6369 67.206 39.6533 66.9109 39.6777C66.8391 39.6778 66.7514 39.6859 66.6716 39.694C66.6476 39.6621 66.6157 39.6303 66.5837 39.6064C66.5598 39.5905 66.5438 39.5666 66.5198 39.5506C66.5355 39.3751 66.5512 39.1757 66.5189 38.9604L66.4302 38.3064L65.7681 38.2675C65.6564 38.2677 65.5368 38.2679 65.4012 38.2681C65.4012 38.2681 65.3852 38.2681 65.3772 38.2681L65.2486 37.5744L64.6104 37.5753C64.5384 37.384 64.4025 37.2167 64.1949 37.0734C64.0188 36.6589 63.6916 36.5397 63.5001 36.5081C63.2528 36.4606 62.9656 36.485 62.6945 36.5093C62.6227 36.5094 62.527 36.5255 62.4472 36.5256C62.2954 36.3265 62.1835 36.183 62.0796 36.0875C62.0557 36.0636 62.0397 36.0477 62.0157 36.0317L62.5146 33.5822L61.28 34.7486L61.2796 34.5332L60.2989 34.766C59.9161 34.8543 59.6847 34.7669 59.2377 34.5682C59.0222 34.4728 58.7747 34.3695 58.4874 34.2901C58.3514 34.0112 58.1436 33.7483 57.8721 33.5173C57.5925 33.2785 57.2732 33.1034 56.954 33.0162C56.922 32.9684 56.8821 32.9365 56.8422 32.8967C56.4987 32.5861 56.068 32.5948 55.7729 32.6271C55.7569 32.6032 55.733 32.5873 55.709 32.5634C55.685 32.5395 55.6611 32.5236 55.6451 32.4997L55.8351 31.5661L54.16 31.5686L54.1594 31.1299L53.6645 30.9233C53.2335 30.7404 52.9066 30.8287 52.7153 30.9247C52.6754 30.9487 52.6356 30.9727 52.5958 30.9967C52.468 30.9091 52.3323 30.8774 52.2605 30.8616L52.1887 30.8457L51.9095 30.8461L51.9081 29.9129L51.23 29.8102C50.831 29.747 50.568 29.8431 50.3847 29.963C50.0653 29.7561 49.7064 29.7726 49.4113 29.797C49.3953 29.7731 49.3713 29.7571 49.3474 29.7332C49.3234 29.7093 49.2995 29.6934 49.2835 29.6695L49.4418 28.9035L48.644 28.7532C48.3886 28.7057 48.1733 28.73 48.0139 28.786C47.9899 28.7542 47.9739 28.7302 47.9499 28.6984C47.6623 28.3797 47.2874 28.3883 47.1279 28.3965C47.0641 28.3966 47.0401 28.3966 47.0082 28.3648C46.8724 28.2693 46.6488 28.1021 46.2978 28.0468C46.1701 28.023 46.0504 28.0152 45.9308 28.0154L45.93 27.473L45.7222 27.242C45.4266 26.9154 45.0276 26.7963 44.6529 26.9325C44.6051 26.9485 44.5652 26.9725 44.5174 26.9965C44.1185 26.9253 43.8394 27.0215 43.6562 27.1494C43.3049 26.9266 42.922 26.959 42.611 26.9914C42.3393 26.6648 42.0677 26.4339 41.7884 26.3067L41.7559 25.9318L41.0141 25.9329L40.8145 25.7976C40.5349 25.5348 40.2557 25.5512 39.6256 25.576C39.3783 25.5844 38.8758 25.6091 38.7482 25.5774C38.3412 25.4583 37.4234 25.1327 37.0802 24.9736C37.0321 24.8541 36.9362 24.6947 36.7605 24.5593C36.0258 24.0101 35.1802 23.9714 34.4304 23.9407C34.1751 23.9331 33.9278 23.9175 33.6964 23.8859L33.6804 23.862C33.4886 23.623 33.145 23.1848 32.5706 23.1059C32.2271 22.7714 31.7883 22.7561 31.565 22.7485C31.4294 22.7487 31.3496 22.7408 31.3097 22.7329C31.2857 22.701 31.2697 22.6691 31.2617 22.6452C31.1817 22.4938 30.9897 22.1351 30.535 22.072C30.3116 22.0404 30.1042 22.0567 29.9128 22.0649C29.8091 22.0651 29.7054 22.0812 29.6097 22.0654L29.123 22.0103C29.051 21.8908 28.9392 21.7553 28.7635 21.6519C28.4042 21.4291 27.9495 21.3819 27.5826 21.3745C27.5265 21.223 27.4385 21.0716 27.3027 20.9362C26.6317 20.2671 25.8022 20.3083 25.2439 20.341C25.1083 20.3412 24.9567 20.3574 24.845 20.3496C24.7331 20.1424 24.5251 19.7917 24.0783 19.6648C23.8628 19.6013 23.6394 19.5936 23.4321 19.6019L23.9411 18.636L22.7126 18.5581C21.9627 18.5113 21.2448 18.4645 20.4631 18.5295L19.1449 17.1436L18.3553 17.1607L18.1393 16.7941L16.6956 16.7963C16.6635 16.6926 16.6155 16.581 16.5435 16.4774C16.4476 16.334 16.3598 16.2783 15.8248 15.8962C15.7529 15.8485 15.681 15.7927 15.6172 15.7529C15.6171 15.729 15.6171 15.6971 15.617 15.6652C16.5583 15.7117 17.5316 15.782 18.5128 15.8603L18.5134 16.2192L18.6963 15.868C38.4889 17.5852 65.3278 26.5585 81.5165 34.6066C82.3067 34.9962 83.7757 35.8316 85.4761 36.8022C90.1784 39.4753 93.6032 41.3845 94.8399 41.5582C95.0952 41.5977 95.3425 41.6053 95.5818 41.6049C95.1121 42.2278 94.6185 42.8427 94.1169 43.4657L93.7255 43.0993L93.7267 43.9608C93.5914 44.1285 93.4481 44.2962 93.3047 44.464L93.2648 44.4321L93.249 44.5358C91.3858 46.7721 89.395 48.9607 87.4359 51.1013C85.9228 52.7548 84.4018 54.4321 82.9128 56.1414L82.6415 56.1418L82.7774 56.2931C81.4317 57.8506 80.1179 59.4479 78.892 61.0929L78.3336 61.0938L78.6532 61.4044C76.9815 63.6802 75.4615 66.0516 74.2369 68.574L74.1335 68.7895C73.2189 70.6096 72.6946 72.0063 73.0948 72.9469C73.2549 73.3216 73.5664 73.6003 73.9574 73.7194L74.0851 73.759L74.2207 73.7588C76.3503 73.6599 78.3274 72.8912 80.1444 71.7797C80.2481 71.8115 80.3439 71.8353 80.4316 71.8351L80.9421 71.8344L81.3317 70.9883L81.5787 70.8204L83.3654 70.7379L83.3649 70.4268C83.4048 70.4268 83.4526 70.4108 83.4925 70.4027L84.1225 70.2662L84.1215 69.652C84.4405 69.5638 84.6636 69.4039 84.8149 69.2521C84.9105 69.1562 85.014 69.0205 85.1014 68.8449L86.3791 69.8002L86.3766 68.1171L87.1264 68.116L87.1256 67.5895L89.1597 67.5865L88.5684 66.8854L89.9164 66.8834L89.2132 66.0549L89.668 66.126L89.7697 64.8176L90.5831 64.6728L90.6704 64.3377L90.9015 64.2337L91.0289 64.0739C91.2279 63.8184 91.2594 63.5232 91.2511 63.2759C91.259 63.2759 91.275 63.2919 91.291 63.2998C91.4826 63.4032 91.8018 63.4825 92.2402 63.2984L92.7583 63.0822L92.7173 62.3006L93.1081 62.3L95.0332 64.0759L93.84 60.9748C94.0074 60.8788 94.2305 60.7349 94.3977 60.5033C94.4773 60.3915 94.525 60.2798 94.5647 60.176L95.2508 60.2308L95.3687 59.1219L95.6478 59.0497L96.862 60.1885L96.8425 57.8434L97.3127 57.5795L97.2644 57.2844C97.3442 57.2604 97.4239 57.2284 97.5116 57.1884C97.7587 57.0683 98.6747 56.1895 98.7781 56.0378C98.9532 55.7743 99.0246 55.503 99.0562 55.2796L100.588 55.1896L100.585 53.7538C100.769 53.6897 100.936 53.6017 101.095 53.4738C101.581 53.0982 101.828 52.5315 101.955 52.0607L103.415 52.0585L103.557 51.4361C103.581 51.3404 103.589 51.2446 103.597 51.1569L103.684 51.1328L103.684 51.085L103.948 51.1244L103.947 50.6379C103.987 50.6378 104.027 50.6298 104.066 50.6217L104.585 50.5173L104.688 49.9986C104.727 49.7832 104.711 49.5599 104.695 49.3605C104.711 49.3445 104.735 49.3285 104.751 49.3125C104.782 49.2806 104.814 49.2486 104.838 49.2167C104.846 49.2167 104.862 49.2167 104.87 49.2166L106.41 49.5095L105.722 48.0508L106.886 47.5545L106.972 46.3977L107.633 46.2213L107.672 45.6708L107.864 45.6546L107.959 45.3433L108.821 45.342L108.803 44.4088L109.194 44.1929L109.193 43.9456L109.449 43.9452L109.679 43.5779L110.653 43.5765L110.691 42.6272C110.699 42.4756 110.699 42.3241 110.682 42.1725L111.169 42.1718C110.875 42.6748 110.7 43.2015 110.717 43.7359C110.742 44.3979 111.062 45.3307 112.499 45.9667C113.185 46.2767 113.999 46.4111 114.908 46.4098C116.823 46.4069 119.167 45.7812 121.678 44.8362L122.654 46.6694L122.651 44.4598C122.699 44.4358 122.754 44.4198 122.802 44.4038L123.401 44.9692L123.4 44.1556C123.91 43.9395 124.428 43.7153 124.947 43.4832L125.641 44.0007L125.64 43.1711C126.166 42.931 126.692 42.675 127.218 42.4269L127.505 42.3706L127.482 42.4265ZM114.742 36.7264L115.149 36.5024L115.132 36.0239C115.307 35.8641 115.443 35.6405 115.482 35.3214C115.506 35.2974 115.538 35.2814 115.562 35.2575C115.594 35.2255 115.617 35.2015 115.641 35.1696C115.649 35.1696 115.665 35.1696 115.681 35.1695L116.623 35.3436L116.621 34.4742L117.076 34.4735L117.291 34.0185C117.49 33.5874 117.409 33.2685 117.313 33.0692C117.297 33.0294 117.273 32.9975 117.249 32.9656C117.377 32.9256 117.52 32.8695 117.672 32.7736C118.317 32.3498 118.476 31.7912 118.499 31.3126L119.608 31.3109L119.607 30.601L120.334 31.2859L120.354 28.845L121.096 28.8439L121.094 27.783L122.761 27.7805L121.866 26.729L122.146 26.7285L122.24 25.6037L122.973 25.3234L122.955 23.8238L123.186 23.7597L123.305 23.3208C123.345 23.1851 123.456 22.7622 123.208 22.3956C123.136 22.2841 123.04 22.1965 122.952 22.1408C122.976 22.0769 122.992 22.0131 123 21.9812C123.119 21.3508 122.631 20.8091 122.208 20.4748L122.206 19.1666L120.954 19.1525C120.89 19.017 120.81 18.9055 120.706 18.8019C120.306 18.4117 119.788 18.4364 119.413 18.4609C119.286 18.4611 119.142 18.4772 119.006 18.4615C118.943 18.4536 118.863 18.4138 118.759 18.3661C118.543 18.2707 118.256 18.1356 117.849 18.1043C117.562 18.0808 117.283 18.0892 117.012 18.1055C116.796 18.1138 116.573 18.1301 116.366 18.1065L115.687 18.0676L115.584 18.4586C115.433 18.4668 115.249 18.507 115.066 18.611C114.923 18.6989 114.851 18.7788 114.716 18.9704C114.676 18.9466 114.636 18.9147 114.596 18.8909C114.324 18.7397 114.005 18.7322 113.647 18.8684L113.136 19.0685L113.138 20.2251L110.833 20.2286L111.831 21.1843C111.305 21.4962 110.812 21.9117 110.326 22.4469C108.98 23.9485 107.627 25.9686 106.322 27.9248C106.306 27.9408 106.298 27.9648 106.282 27.9807L105.875 27.9813L106.099 28.2522C105.844 28.6355 105.59 29.0108 105.327 29.394L104.378 29.3955L104.905 30.0168C104.77 30.2165 104.634 30.4001 104.499 30.5918L104.092 30.2813L104.133 31.1028C104.053 31.2066 103.982 31.3025 103.91 31.4063L103.91 31.3584L103.025 31.5033C102.977 31.3678 102.913 31.2243 102.809 31.0729C102.577 30.7382 101.379 29.5356 100.278 29.3777L100.054 29.027L99.7825 29.0274L99.781 27.9905L97.6592 27.9777L97.2669 27.053L96.8441 26.9739C96.6685 26.9422 96.4929 26.8787 96.3014 26.8152C96.0779 26.7357 95.8305 26.6484 95.5513 26.6009C95.3913 26.2661 95.0878 26.0512 94.641 25.9562C94.609 25.9163 94.577 25.8685 94.5451 25.8287C94.2653 25.4542 94.1055 25.2391 93.7624 25.1917C93.6427 25.176 93.5311 25.1682 93.4194 25.1683L93.4182 24.3547L92.501 24.4917C91.9747 24.5722 91.9747 24.5722 91.6709 24.126L91.3751 23.6877L90.8568 23.7922C90.6814 23.8244 90.5538 23.8405 90.466 23.8486C90.418 23.6971 90.3299 23.5058 90.1462 23.3306C89.9066 23.1076 88.9489 22.79 88.9489 22.79C88.5659 22.6949 88.1671 22.7034 87.8081 22.7199L87.8075 22.3131C89.9605 21.8632 92.169 21.126 94.1461 20.4132L94.5373 20.62L94.5367 20.269C95.1187 20.0528 95.6768 19.8445 96.2029 19.6443C97.2473 19.2519 98.1401 18.9155 98.8338 18.6912C98.8896 18.6751 98.9454 18.6591 99.0012 18.643L99.768 19.3598L99.7666 18.4106C99.9978 18.3384 100.245 18.2743 100.484 18.2021L101.259 18.8231L101.258 17.9936C105.077 16.9748 109.862 16.0822 114.798 15.5483L115.47 16.8076L115.468 15.4835C120.19 15.0058 125.015 14.863 129.212 15.2635L129.212 15.7501L129.459 15.2871C132.012 15.5465 134.326 15.9977 136.233 16.7127C137.813 17.3006 138.716 18.1448 138.981 19.277C139.117 19.8512 139.079 20.5292 138.888 21.2793L138.793 21.2316L138.857 21.415C138.508 22.6838 137.72 24.1766 136.534 25.8056L134.683 25.7286L135.794 26.7878C135.698 26.9076 135.603 27.0274 135.499 27.1472L134.237 25.9606L134.488 28.1299C134.488 28.2017 134.504 28.2575 134.504 28.3133C134.289 28.5529 134.074 28.7925 133.843 29.0322C133.739 29.0323 133.627 29.0166 133.492 29.0008L132.526 28.9065L132.616 29.8476C132.52 29.8957 132.432 29.9436 132.345 29.9916C132.161 30.0956 132.153 30.0956 132.089 30.0798L131.132 29.8738L131.132 30.0573C131.132 30.0573 131.06 30.0654 131.029 30.0734L130.383 30.202L130.384 30.7683L128.86 30.7706L128.509 30.5877L128.509 30.7711L128.341 30.7714L128.509 30.9705L128.512 32.526L126.709 32.5287C126.541 32.497 126.35 32.5053 126.151 32.5455L126.079 32.5615C125.903 32.498 125.664 32.4744 125.369 32.5546L124.691 32.7391L124.772 33.3612C124.772 33.3612 124.7 33.3932 124.66 33.4092C124.397 33.5452 124.222 33.7449 124.103 33.8966C124.087 33.9126 124.079 33.9285 124.063 33.9445C123.768 34.0407 122.994 34.2891 122.931 34.3052C122.819 34.3133 122.428 34.3059 122.197 34.2903C121.407 34.2596 121.144 34.252 120.873 34.5555L120.666 34.7872L120.666 35.0025L119.542 35.0042L119.543 35.7301L118.442 35.7716L118.211 36.107C118.148 36.1948 117.869 36.5462 117.678 36.7698C117.582 36.762 117.47 36.7622 117.351 36.7783C117.167 36.8105 116.864 36.9067 116.673 37.2499L115.427 36.0793L115.43 37.8341C115.43 37.8341 115.366 37.8422 115.326 37.8502L114.76 37.9627L114.758 36.7423L114.742 36.7264ZM113.59 39.4162L113.429 38.4912C113.413 38.3875 113.476 38.2837 113.516 38.2358C113.628 38.1 113.803 38.0041 113.97 38.0038L114.648 37.9789L114.65 39.0158C114.06 39.3677 113.247 39.9273 112.507 40.5984L112.505 39.4258L113.582 39.4242L113.59 39.4162ZM111.399 41.0787L112.108 40.8303L112.084 40.7905L112.323 40.7662C111.973 41.1017 111.654 41.4612 111.384 41.8365L111.383 41.0867L111.399 41.0787Z" fill="#69FF5D" stroke="#69FF5D" stroke-width="0.5" stroke-linejoin="round"/>
<path d="M239.583 41.3092C245.245 39.9367 251.105 38.516 256.822 36.9919C257.548 36.7993 258.369 36.6067 259.254 36.398C264.118 35.25 270.928 33.6445 272.796 29.3502L273.522 29.3811L273.114 28.6159L273.728 28.615L273.503 27.6342C273.319 26.8368 273.414 26.6213 273.446 26.5734C273.478 26.5335 273.589 26.4934 273.725 26.4852L274.411 26.4124L274.48 24.4899L274.453 22.8149L273.959 22.6162C273.775 22.5367 273.703 22.4252 273.535 22.0984C273.431 21.8991 273.319 21.6839 273.143 21.4608C273.087 21.3891 273.023 21.3254 272.967 21.2697C272.959 21.2218 272.951 21.174 272.935 21.1102C272.887 20.847 272.799 20.7435 272.192 20.0663C272.064 19.923 271.944 19.7875 271.88 19.7079C271.88 19.6919 271.872 19.676 271.864 19.66C271.816 19.4926 271.728 19.2056 271.496 18.9746C271.265 18.7436 271.001 18.6642 270.786 18.6247C270.746 18.5689 270.706 18.5052 270.666 18.4494C270.522 18.2342 270.45 18.1306 270.298 18.0351C270.059 17.8839 269.804 17.8604 269.572 17.8607C269.452 17.4621 269.236 16.9998 268.709 16.849C268.622 16.8252 268.534 16.8094 268.454 16.7936L268.453 16.4585L267.329 16.4602L267.328 15.7503L265.964 15.7683L265.724 15.3619L265.221 15.4105C264.264 15.4997 263.993 15.4522 263.402 15.0862C263.282 15.0146 263.187 14.9429 263.091 14.8713C262.787 14.6484 262.436 14.3857 261.838 14.3228L261.694 13.9959L260.066 13.9984C259.946 13.7273 259.73 13.4644 259.324 13.3454L257.64 13.308C257.64 13.308 257.584 13.2603 257.561 13.2364L257.759 12.4384L256.961 12.2641C256.45 12.1532 256.123 12.3212 255.94 12.481C255.868 12.5449 255.813 12.6168 255.765 12.6887C255.677 12.6569 255.581 12.6251 255.486 12.6013L255.334 12.2506L253.858 12.2209C253.858 12.2209 253.834 12.197 253.818 12.1811L254.048 11.3352L253.162 11.2009C253.075 11.1851 252.987 11.1693 252.907 11.1854L253.018 10.8422L250.944 10.8453L250.873 11.1087C250.634 11.109 250.426 11.1412 250.251 11.1734C250.211 11.1735 250.171 11.1895 250.131 11.1895C250.083 11.1338 250.043 11.07 250.011 11.0302C249.851 10.8151 249.668 10.5601 249.309 10.5048C249.077 10.4652 248.854 10.4815 248.662 10.4898C248.559 10.49 248.455 10.5061 248.367 10.4902L248.224 10.4745L248.223 9.6928L247.337 9.79782C246.54 9.88676 245.758 9.76828 244.928 9.6419C244.202 9.53132 243.452 9.42077 242.646 9.43793C242.631 9.422 242.607 9.40609 242.591 9.39016L242.797 8.56825L241.967 8.40997C241.472 8.31499 241.153 8.49095 240.978 8.64277C240.954 8.66674 240.93 8.6907 240.907 8.71467C240.595 8.67525 240.3 8.65974 239.997 8.66817L239.995 7.24834L238.449 8.39929L237.005 8.40145L237.005 8.17013L236.989 8.09039C236.949 7.88306 236.845 7.73166 236.725 7.62814L236.884 7.18121L235.966 7.0071C235.807 6.97544 235.328 6.88841 234.954 7.21601C234.906 7.25597 234.866 7.29591 234.834 7.34382L232.641 7.34711L232.433 7.00443L231.731 6.98953L231.706 6.65454L228.388 6.65952L228.387 5.74221L227.74 5.61555C227.709 5.6156 227.669 5.59971 227.637 5.59976L227.637 5.52797L226.767 5.60904C225.555 5.72253 224.382 5.58869 223.138 5.44697C222.771 5.40764 222.396 5.36034 222.021 5.329L222.02 4.76266L221.453 4.596C221.158 4.5087 220.927 4.53298 220.743 4.59706C220.695 4.56523 220.64 4.54138 220.584 4.52551C220.296 4.42225 219.993 4.47056 219.73 4.64644L219.547 4.59886C219.435 4.56712 219.323 4.55931 219.22 4.55149L219.252 4.45572L218.438 4.24955C217.887 4.1068 217.552 4.32267 217.393 4.45851C217.353 4.49845 217.313 4.5384 217.282 4.57833L216.795 4.57906L216.794 4.03665L216.172 3.894C215.661 3.77512 215.334 3.95109 215.151 4.1109C215.111 4.14287 215.079 4.1828 215.047 4.21475L214.417 4.23165C213.66 4.25672 212.982 4.27369 212.343 4.09118L212.398 3.66036L211.624 3.54187C211.138 3.46284 210.827 3.63081 210.66 3.78262C210.628 3.81457 210.596 3.84653 210.572 3.87847L207.956 3.89835L207.74 3.53175L205.937 3.53445L205.722 3.9017L205.498 3.52713L204.406 3.5527L202.777 2.33472L202.883 4.32074L202.046 4.36986L201.88 5.31135C201.473 5.35184 201.019 5.48015 200.772 5.88733L199.877 5.22661L199.881 7.46804C199.22 8.09918 198.774 8.88954 198.56 9.74336L197.093 10.4315L198.449 10.4295C198.418 10.7646 198.419 11.0996 198.467 11.4425C198.717 13.2449 199.947 14.6629 201.775 15.2504L201.927 15.2821C207.902 15.975 213.654 16.7721 219.215 17.6491C219.104 17.7849 219.017 17.9525 218.961 18.168C218.961 18.168 218.578 18.3201 218.578 18.3281C218.387 18.3762 218.26 18.4721 218.172 18.5441C218.036 18.6639 217.949 18.7997 217.901 18.9353L217.095 18.5537L217.099 20.9068C217.051 20.9786 217.003 21.0425 216.955 21.1144L216.477 21.4102L216.461 21.4741C216.413 21.4741 216.366 21.4822 216.318 21.4902L215.616 21.571L215.618 23.1903C215.618 23.1903 215.602 23.2222 215.587 23.2382L214.246 23.2402L214.136 23.9104C214.057 24.3812 214.217 24.684 214.369 24.8513C214.401 24.8911 214.44 24.931 214.48 24.9628C214.393 25.0906 214.313 25.2263 214.226 25.3541L213.372 25.1958L213.374 26.5678C213.286 26.6158 213.207 26.6637 213.135 26.7197C212.999 26.8236 212.88 26.9354 212.792 27.0552L211.794 26.4345L211.893 28.2052L211.134 27.4885L211.138 30.2723C211.138 30.2723 211.122 30.2962 211.114 30.3042L209.032 30.2116L210.271 31.6775C210.271 31.6775 210.271 31.6934 210.255 31.6935L209.641 31.6944L209.642 32.3963L208.892 32.3974L208.894 33.4503C208.862 33.4504 208.83 33.4584 208.79 33.4665L208.224 33.579L208.153 34.1534C208.113 34.4486 208.138 34.7517 208.154 35.0229C208.154 35.0627 208.154 35.0946 208.154 35.1345C207.923 35.5178 207.693 35.893 207.462 36.2762L207.023 36.2769L207.024 37.0267C206.825 37.354 206.634 37.6814 206.436 38.0167L206.412 38.0167L206.412 38.0646C206.07 38.6474 205.719 39.2222 205.377 39.805L205.298 39.8051L205.258 40.0046C204.987 40.4597 204.717 40.9227 204.446 41.3778L204.2 41.5936L204.136 41.7213L203.657 41.8257L203.659 42.7031C203.635 42.743 203.611 42.7909 203.587 42.8308L202.909 42.5128L202.911 43.9645C202.561 44.5713 202.211 45.178 201.853 45.7928L197.976 45.8305L200.714 47.1186L200.906 47.4214C200.532 48.0601 200.158 48.6988 199.792 49.3455C199.625 49.4255 199.481 49.5294 199.378 49.6652C199.195 49.9047 199.155 50.176 199.156 50.4392L199.092 50.543C198.996 50.7107 198.885 50.8943 198.79 51.0699L198.375 51.0067L198.136 51.5814C198.033 51.8288 197.994 52.1081 198.034 52.3792C198.01 52.4191 197.994 52.4511 197.97 52.491L197.699 52.4914L197.7 52.954C197.62 53.0898 197.541 53.2335 197.461 53.3692L196.95 53.37L196.952 54.2633C196.689 54.7343 196.419 55.2134 196.148 55.7083L195.845 55.5652L195.846 56.2671C195.846 56.2671 195.798 56.339 195.782 56.3789C195.75 56.3789 195.719 56.3949 195.679 56.403L195.089 56.5634L195.09 57.6562C195.011 57.8158 194.923 57.9755 194.844 58.1352L194.708 58.2072L194.709 58.3906C194.573 58.662 194.43 58.9255 194.295 59.1969L193.059 59.1987L193.834 60.1149C193.691 60.3943 193.555 60.6737 193.396 60.9611L193.38 61.0409C192.999 61.8311 192.625 62.6293 192.275 63.4195L192.108 63.4198L192.108 63.7947C190.916 66.5484 189.987 69.2539 189.615 71.6554C189.102 74.9266 190.229 76.2092 191.258 76.7101C191.713 76.9328 192.216 77.0278 192.75 77.027C194.37 77.0245 196.235 76.0885 197.732 74.8259L197.836 74.8656L197.836 74.738C197.892 74.6901 197.948 74.6421 198.003 74.5942L199.057 75.3982L198.959 73.6196C199.007 73.5637 199.055 73.5078 199.102 73.4519L199.717 73.451L199.715 72.7331C199.715 72.7331 199.731 72.733 199.747 72.733C199.819 72.717 200.082 72.6448 200.273 72.3972L201.223 72.4117L201.222 72.0448L201.965 72.7456L201.961 70.3208C202.153 70.3444 202.36 70.3202 202.575 70.2321L203.078 70.0319L203.075 68.1734L203.825 68.1722L203.823 67.1034L204.645 67.142L204.867 66.6551C205.066 66.2241 204.986 65.9051 204.89 65.7059C204.858 65.6421 204.818 65.5863 204.778 65.5385C204.897 65.3549 204.977 65.1155 204.96 64.7884C205.088 64.6686 205.191 64.5009 205.247 64.2536C205.254 64.2057 205.262 64.1898 205.278 64.1578L205.35 64.0062C205.565 63.5671 205.747 63.176 205.723 62.5379L206.782 61.6748L206.837 60.7574L207.435 60.597L207.514 60.0864C207.561 59.7912 207.545 59.512 207.528 59.2648C207.52 59.0654 207.504 58.85 207.536 58.7303C207.591 58.5388 207.758 58.3391 207.949 58.1075C208.292 57.7002 208.769 57.1172 208.728 56.2797L209.031 56.1197L209.03 55.4896L209.772 55.4885L209.754 54.2043L210.145 53.9883L210.144 53.7251L210.806 53.7241L210.877 52.9981C210.893 52.8146 210.877 52.6232 210.876 52.4238C210.876 52.3281 210.86 52.2164 210.868 52.1446C210.868 52.1446 210.884 52.1286 210.892 52.1206C210.979 52.0168 211.115 51.8651 211.194 51.6256C211.258 51.4102 211.265 51.1948 211.257 51.0193C211.273 51.0033 211.289 50.9953 211.305 50.9794C211.329 50.9554 211.353 50.9314 211.376 50.9075C211.552 50.9072 211.759 50.875 211.967 50.7471C212.118 50.6591 212.205 50.5393 212.269 50.4275C212.596 50.2595 212.715 50.0041 212.755 49.7887C212.778 49.653 212.786 49.5174 212.786 49.3898L213.129 49.2936L213.967 49.8188L213.836 47.41C213.907 47.1866 213.891 46.9712 213.883 46.8436C213.883 46.8197 213.883 46.7957 213.883 46.7798C213.923 46.7398 213.971 46.6919 214.026 46.644C214.249 46.4283 214.616 46.0688 214.783 45.5979L215.365 45.5811L215.364 44.9031L215.834 44.9024L216.049 44.4394C216.248 44.0084 216.168 43.6894 216.072 43.4901C216.048 43.4503 216.032 43.4184 216.008 43.3865C216.071 43.2907 216.095 43.195 216.111 43.1232L217.044 43.1616L217.219 42.5551C217.243 42.4833 217.251 42.4115 217.258 42.3317C217.684 44.0461 219.073 44.7938 220.318 45.446C220.558 45.5733 220.805 45.7005 221.053 45.8437C225.843 48.5486 231.007 50.9498 236.004 53.2715C237.632 54.0268 239.34 54.6385 240.809 55.6812C242.43 56.8194 243.629 58.413 245.179 59.6151C246.225 60.4272 247.51 60.8879 248.58 61.66C249.45 62.2809 250.161 63.1014 250.976 63.7941C253.476 65.9441 256.955 66.7605 260.185 66.277C261.875 66.0272 263.414 65.4027 264.856 64.5072C265.311 64.2273 266.203 63.8192 266.546 63.4278C266.665 63.292 267.492 61.7274 267.269 61.7277L268.154 61.7264L268.144 60.1071L268.439 59.9551L268.51 59.5801C268.605 59.0934 268.076 57.1399 268.068 57.116C268.004 56.9087 267.892 56.7493 267.804 56.6298C267.788 56.6059 267.764 56.574 267.748 56.5501L268.097 55.5605L267.02 55.5621L267.019 54.3417L266.078 54.5186C266.078 54.5186 266.054 54.5186 266.038 54.5187C266.014 54.4868 265.982 54.4549 265.95 54.431C265.934 54.4151 265.91 54.3912 265.886 54.3753C265.902 54.1679 265.917 53.9525 265.885 53.7372L265.724 52.8839L264.887 53.1165C264.807 53.1405 264.759 53.1486 264.72 53.1487C264.712 53.1327 264.696 53.1168 264.688 53.1008C264.592 52.9574 264.448 52.7343 264.184 52.5831C263.857 52.3922 263.522 52.281 263.226 52.1777C263.099 52.1381 262.979 52.0904 262.867 52.0507C262.843 52.0268 262.827 52.0029 262.803 51.979C262.644 51.7878 262.404 51.501 261.997 51.3899C261.702 51.3106 261.391 51.327 261.143 51.3433C261.111 51.3434 261.08 51.3434 261.04 51.3435C260.976 51.2638 260.904 51.1762 260.832 51.0806C260.44 50.5866 260.376 50.5069 260.217 50.4194C259.993 50.2921 259.762 50.2526 259.562 50.2689C259.259 49.8465 259.091 49.6235 258.74 49.5761C258.572 49.5524 258.421 49.5606 258.301 49.5688C258.261 49.5689 258.221 49.5769 258.181 49.569L257.703 49.5139C257.511 49.3786 257.288 49.2832 257.048 49.2277L256.888 48.861L255.109 48.8796C254.862 48.5689 254.534 48.2344 253.944 48.1475C253.52 47.7892 252.826 47.7504 252.356 47.7192C252.236 47.7193 252.092 47.7036 251.981 47.6878C251.925 47.5523 251.829 47.3929 251.637 47.2736C251.406 47.1303 251.174 47.1067 250.991 47.107C250.911 46.9636 250.783 46.7962 250.575 46.6769C250.336 46.5417 249.378 46.0326 248.652 46.0895L248.652 45.8901L247.168 45.5254L247.166 44.6559L244.925 44.6593L244.924 43.9414L243.927 43.9589L243.711 43.6242L243.2 43.601L243.048 43.2503L242.466 43.2511L243.134 41.9898L241.643 42.4707C241.531 42.3512 241.38 42.2477 241.156 42.2082L241.084 42.2083L239.696 42.2103L239.696 41.9551L239.305 41.7323L239.304 41.3734C239.4 41.3493 239.488 41.3332 239.575 41.3092L239.583 41.3092ZM222.51 33.7969L222.621 33.4058L222.086 33.2152L222.086 32.9121L222.74 32.9111L222.741 33.7885C222.67 33.7886 222.59 33.7888 222.51 33.7889L222.51 33.7969ZM254.284 25.1344C254.196 25.1984 254.101 25.2623 253.997 25.3502C253.671 25.606 253.416 25.7898 253.224 25.8938C253.168 25.8381 253.104 25.7823 253.025 25.7346C252.881 25.647 252.713 25.5994 252.538 25.5997C252.53 25.5917 252.522 25.5758 252.506 25.5678L252.21 25.2891L251.859 25.2896C251.476 25.2902 251.182 25.4103 250.982 25.6419C250.775 25.8735 250.744 26.1368 250.752 26.3362L250.505 26.3366L250.282 26.6959C250.13 26.6722 249.963 26.6246 249.779 26.569C249.444 26.4738 249.053 26.3547 248.606 26.3474L247.721 26.3328L247.786 27.0506L245.927 27.0534L245.928 27.516C245.713 27.4366 245.457 27.3732 245.146 27.4135L244.436 27.4943L244.437 27.7576L243.312 27.7752L243.312 27.831L242.187 27.2265L242.188 28.4709L241.598 28.4717L241.118 27.5711L240.816 28.1459C240.648 28.0983 240.449 28.0906 240.21 28.1468L239.58 28.2833L239.581 29.1847L238.345 29.1865L238.266 29.5616C238.13 29.5618 237.947 29.562 237.819 29.5463C237.245 29.5152 236.295 29.4608 235.953 30.243L235.714 30.2434L235.514 29.8927L234.972 29.8935C234.972 29.8935 234.908 29.8218 234.876 29.79C234.692 29.6228 234.365 29.4478 233.855 29.5602L233.225 29.6967L233.226 30.5822C232.851 30.6146 232.548 30.7427 232.309 30.8388C231.998 30.9669 231.871 31.0069 231.703 30.9673L231.136 30.8326L230.842 31.3276C230.842 31.3276 230.81 31.3276 230.786 31.3276C230.443 31.3042 229.917 31.2651 229.502 31.6566C229.391 31.7684 229.303 31.8882 229.248 32.0159L227.94 32.0179L227.828 32.377L224.726 32.3817L224.678 32.7327C224.678 32.7327 224.67 32.7327 224.654 32.7327C224.439 32.7171 224.255 32.7333 224.112 32.7814C223.904 32.7099 223.665 32.6943 223.394 32.7506L222.86 32.8631L222.858 31.874L224.23 31.8639L224.341 31.2097C224.373 31.0341 224.364 30.8746 224.34 30.747L224.723 30.9299L224.719 28.3455L225.246 28.3447L225.46 27.6504L226.186 27.5377L226.185 26.9554L226.807 26.9544L226.934 26.3161C226.958 26.1885 227.037 25.7895 226.805 25.4389C226.765 25.3751 226.717 25.3273 226.669 25.2796L226.964 25.1196L226.947 24.2741C227.138 24.1143 227.289 23.8907 227.313 23.5556C227.337 23.5396 227.36 23.5157 227.384 23.4917C227.416 23.4598 227.44 23.4358 227.464 23.4039C227.48 23.4038 227.488 23.4038 227.504 23.4038L228.381 23.5381L228.444 22.6526C228.499 22.3574 228.499 21.8229 227.852 21.5607C227.828 21.5368 227.804 21.5129 227.78 21.489C227.764 21.4731 227.74 21.4492 227.724 21.4332C227.747 20.6914 227.594 20.0216 227.45 19.3757C227.426 19.264 227.402 19.1524 227.378 19.0408C236.904 20.7734 245.833 22.802 254.292 25.1663L254.284 25.1344Z" fill="#69FF5D" stroke="#69FF5D" stroke-width="0.5" stroke-linejoin="round"/>
<path d="M349.086 9.17458L349.876 9.21328L348.518 7.57213L348.493 7.06964C348.548 6.90205 348.572 6.67867 348.516 6.40755L348.484 6.26402L349.75 5.0736L347.804 5.07652C347.804 4.9808 347.796 4.87712 347.771 4.77346C347.739 4.59802 347.627 4.31103 347.276 4.13607C347.092 3.80133 346.805 3.70604 346.629 3.67439C346.414 3.63483 346.214 3.65109 346.039 3.65933L345.823 3.3007L344.531 3.31859L344.315 2.9839L343.796 2.96075L343.652 2.63392L343.15 2.61872C342.344 2.58802 341.531 2.61317 340.733 2.6383C339.863 2.66353 338.962 2.68881 338.125 2.64221C337.925 2.63453 337.59 2.56325 337.263 2.49195C336.553 2.34146 335.946 2.20676 335.46 2.35107C335.237 2.41522 335.085 2.5351 334.982 2.61502C334.958 2.63101 334.942 2.66294 334.966 2.64695C334.607 2.70332 334.192 2.66406 333.745 2.61687C333.45 2.58541 333.131 2.55398 332.804 2.55447L332.803 2.08385L332.173 1.94919C331.662 1.83829 331.335 2.01426 331.152 2.18205C331.12 2.214 331.089 2.23798 331.065 2.26992C330.682 2.24657 330.267 2.27112 329.948 2.63852L327.54 2.62618L327.516 2.6661L327.492 2.62625L324.261 2.6311L324.126 2.64726C324.022 2.66336 323.767 2.73554 323.576 2.97512L323.368 2.63244L321.589 2.63511C321.429 2.63535 321.286 2.63556 321.142 2.65173L321.11 2.65178C320.744 2.69221 320.433 2.79637 320.162 2.88452C319.827 2.9967 319.595 3.06883 319.34 3.04529L318.182 2.18555L317.864 2.99166C317.689 2.99193 317.521 2.99218 317.346 2.99244C317.258 2.99257 317.178 2.99269 317.091 2.99283L317.09 2.74555L316.412 2.64287C315.917 2.57182 315.615 2.73979 315.447 2.89159L314.489 2.31074L314.426 2.43846L313.258 0.23866L313.262 3.07833C313.166 3.04657 313.063 3.0228 312.951 3.00701C312.584 2.95173 312.209 2.97622 311.858 2.9927C311.595 3.00905 311.348 3.01739 311.14 2.99377L310.326 2.9232L310.326 2.98702L308.133 2.99828C307.989 2.96659 307.83 2.96683 307.654 2.999L307.503 2.99923L307.503 3.00721L306.905 3.04799L306.905 3.3511L305.836 3.3527L305.629 3.71196L304.337 3.7139L302.788 2.56759L302.789 3.0063C302.789 3.0063 302.717 3.01438 302.685 3.02241L302.039 3.151L302.04 3.66151C301.641 3.63818 301.242 3.73449 300.907 3.80679C300.732 3.84693 300.445 3.9032 300.421 3.89526C300.381 3.88734 300.341 3.87145 300.301 3.85555C300.118 3.78404 299.854 3.68074 299.511 3.70518C299.256 3.72152 299.057 3.81754 298.897 3.92147C298.618 3.75438 298.187 3.57157 297.677 3.77972L297.182 3.97988L297.183 4.05965L293.346 4.0654C293.346 4.0654 293.274 3.98574 293.226 3.94593C292.97 3.71499 292.619 3.64373 292.197 3.74008L291.567 3.87663L291.567 4.05212C291.376 4.02847 291.192 4.06066 291.049 4.10075L290.443 4.25322L290.443 4.81956L290.364 4.81968L290.124 4.78813C289.941 4.7565 289.765 4.76474 289.622 4.78888L289.582 4.62144L289.279 4.56605C288.935 4.02416 288.4 4.06484 288.169 4.11305C288.121 4.1211 288.081 4.13711 288.042 4.15312C287.858 4.08161 287.611 4.0421 287.284 4.13033L286.694 4.29075L286.695 5.1602L285.092 5.1626C285.092 5.1626 285.076 5.1387 285.06 5.13075C284.676 4.70856 284.086 4.76528 283.799 4.8056L283.799 4.64606L283.208 4.48742C282.666 4.33667 282.323 4.55256 282.164 4.6884C282.06 4.78427 281.98 4.88809 281.925 4.99187C281.677 4.80878 281.358 4.75342 280.967 4.8258L280.329 4.95438L280.33 5.61644C280.091 5.62477 279.844 5.59324 279.565 5.56973C279.261 5.53827 278.95 5.51481 278.623 5.5153L278.424 5.5156L277.44 3.68245L277.139 5.07881C276.876 5.09516 276.621 5.21519 276.422 5.44681L276.214 5.67845L276.215 5.88584L275.377 5.88709C275.377 5.88709 275.321 5.81539 275.281 5.78354C274.906 5.43313 274.412 5.52162 274.252 5.55376L273.598 5.67439L273.598 5.88976C273.463 5.87401 273.303 5.88223 273.136 5.91439C273.096 5.89052 273.048 5.87464 273 5.85078C272.617 5.71575 272.226 5.83598 271.932 6.16347L271.725 6.3951L271.726 6.96144L269.851 6.96425L269.852 7.39499C269.652 7.3235 269.429 7.28395 269.166 7.31625C269.07 7.32437 268.91 7.3645 268.751 7.47641C268.567 7.35703 268.28 7.26174 267.881 7.33413L267.235 7.46273L267.24 10.5337C266.228 10.9341 265.439 11.4856 265.44 12.3471C265.442 13.3442 266.496 14.0765 268.866 14.711C276.558 16.7814 285.252 16.4652 293.667 16.1575C295.51 16.0909 297.304 16.0324 299.067 15.9899C299.043 16.0138 299.019 16.0458 299.003 16.0697L298.501 16.0146L298.326 16.677C298.287 16.8206 298.271 16.9562 298.279 17.0838C298.239 17.1238 298.207 17.1637 298.175 17.2036C297.729 17.3718 297.602 17.715 297.562 17.9225C297.539 18.0661 297.523 18.1698 297.531 18.1937C297.483 18.2416 297.276 18.3696 297.18 18.4335L296.798 18.6734L296.815 19.838C296.64 19.9898 296.497 20.2213 296.458 20.5484C296.434 20.5644 296.41 20.5884 296.386 20.6123C296.354 20.6443 296.322 20.6683 296.298 20.7002C296.282 20.7002 296.266 20.7003 296.258 20.7003L295.325 20.5342L295.312 22.7996L293.366 22.8025L294.205 23.5909L294.208 25.617L292.932 25.6189L293.307 26.3203L293.068 26.3206L293.093 27.1422C293.102 27.5171 292.999 28.3149 292.912 28.5782C292.649 28.7063 292.474 28.89 292.378 29.1454L291.629 29.1465L291.822 30.1991L291.231 30.2L291.234 32.1304C291.17 32.1544 291.123 32.1704 291.083 32.1944C290.852 32.2984 290.748 32.3385 290.644 32.3227L289.743 32.2124L289.746 34.0948L287.823 34.01L288.622 35.1415L287.426 35.1433L288.712 36.3697C288.68 36.4097 288.648 36.4416 288.616 36.4736C288.601 36.4975 288.585 36.5135 288.569 36.5375L288.09 36.4983L287.971 36.8973C287.915 36.8974 287.859 36.8975 287.796 36.9135L287.118 37.0182L287.12 38.3104L286.88 38.3108L287.121 39.2118L287.121 39.3155C287.121 39.3155 287.097 39.3315 287.081 39.3395C286.962 39.4274 286.826 39.5313 286.691 39.6512C286.659 39.6831 286.627 39.7071 286.603 39.739C286.587 39.7391 286.579 39.7391 286.563 39.7391L285.614 39.565L285.649 41.4873L284.859 41.5045L284.876 42.4138L284.486 42.6297L284.503 43.4752L284.12 43.6752L284.121 43.8427L283.402 43.5088L283.381 45.2477L282.345 45.6401L282.553 46.0785L279.131 46.0837L282.276 47.5626C282.276 47.5706 282.276 47.5865 282.276 47.5945C282.276 47.6424 282.268 47.6903 282.268 47.7301C282.252 47.7461 282.236 47.7541 282.22 47.7701C282.196 47.7941 282.172 47.818 282.149 47.85C282.149 47.85 282.133 47.85 282.125 47.85C281.933 47.8343 281.718 47.8187 281.486 47.851L280.92 47.9156L280.801 48.4662C280.801 48.4662 280.794 48.522 280.786 48.546L279.206 48.5483L280.396 49.6792L280.398 50.5886C280.246 50.7085 280.135 50.8362 280.047 50.9241C280 50.9721 279.936 51.0679 279.912 51.036L279.034 50.798L278.916 51.6995C278.9 51.8112 278.876 51.9788 278.901 52.1622L278.902 53.3029L278.344 53.4553L278.281 53.8223L277.411 53.8236L277.414 55.2354L275.364 55.2385L276.45 56.5132C276.139 56.729 275.965 57.0962 275.933 57.6147C275.933 57.6546 275.934 57.7024 275.926 57.7344C275.91 57.7424 275.894 57.7583 275.878 57.7663C275.671 57.9182 275.368 58.15 275.241 58.549C275.177 58.7485 275.162 58.94 275.162 59.1234L274.62 59.1402L274.637 59.9299C274.637 60.1373 274.558 60.3129 274.406 60.6082C274.383 60.6561 274.351 60.712 274.327 60.7679L269.494 56.2284L273.3 61.8862C273.244 61.9261 273.18 61.9661 273.14 61.9981C272.917 62.142 272.646 62.3258 272.575 62.6929C272.559 62.7966 272.543 62.9003 272.543 62.996L272.113 62.9967L271.898 63.4596C271.699 63.8907 271.78 64.2096 271.876 64.4089C271.9 64.4487 271.916 64.4886 271.94 64.5205C271.868 64.6402 271.836 64.752 271.82 64.8238L271.82 64.8876L271.199 65.0879L271.112 66.0134L270.714 66.2453L270.683 66.7319L270.3 66.876L270.301 67.578L269.567 67.5791L269.572 70.5384C269.277 71.2248 269.079 71.8234 269 72.2782C268.731 73.8819 269.004 75.0301 269.826 75.675C270.322 76.0731 270.952 76.2237 271.622 76.2227C272.803 76.2209 274.142 75.7483 275.186 75.3239C278.75 73.8589 281.673 70.9909 284.172 67.5412L284.627 67.8995L284.626 66.8944C284.753 66.7028 284.889 66.5191 285.024 66.3275L285.167 66.3273L285.294 65.9043C285.82 65.1059 286.329 64.2835 286.814 63.4532L287.245 63.3728L287.244 62.7187C287.594 62.096 287.936 61.4733 288.262 60.8427L288.51 60.9221L288.708 60.0843C288.708 60.0843 288.716 60.0364 288.724 60.0124L289.593 60.051L289.153 59.1264C289.225 58.9907 289.288 58.855 289.36 58.7193L289.455 58.6792L289.455 58.5197C289.678 58.0727 289.901 57.6257 290.115 57.1786L290.219 57.1785L290.219 56.9631C290.314 56.7636 290.409 56.564 290.505 56.3644L290.856 56.5314L290.95 55.4305C291.014 55.2868 291.085 55.1511 291.149 55.0154L291.683 54.871L291.706 53.85C291.729 53.8021 291.753 53.7542 291.777 53.6983C291.952 53.3232 292.127 52.964 292.294 52.5968L292.645 52.5963L292.804 52.0058C292.859 51.7823 292.875 51.5909 292.859 51.4234C293.312 50.4735 293.757 49.5715 294.195 48.7253L295.918 48.7227L294.767 47.6396C294.839 47.5119 294.91 47.3762 294.974 47.2484L295.779 46.8723L295.3 46.6497C296.183 44.9972 297.066 43.3367 297.957 41.6763L299.64 41.6578L298.53 40.6145C299.039 39.6725 299.548 38.7305 300.049 37.7965L301.222 37.7947L300.502 36.9503C300.598 36.7667 300.701 36.5831 300.797 36.4074L300.932 36.4072L300.884 36.2478C301.123 35.8007 301.369 35.3537 301.608 34.9146C302.777 32.7512 303.971 30.5558 305.156 28.3445L305.515 28.5753L305.514 27.666C305.721 27.2828 305.927 26.9076 306.126 26.5244L307.554 26.5222L306.683 25.4866C307.192 24.5366 307.693 23.5946 308.194 22.6526L308.282 22.6525L308.258 22.5329C308.393 22.2854 308.528 22.0299 308.656 21.7825L308.719 21.6228C308.981 20.6573 309.027 19.7239 308.875 18.8866L308.874 18.1847C308.977 18.0808 309.073 17.9531 309.136 17.8174C309.375 17.3304 309.31 16.7403 309.15 16.2699C310.506 16.3795 312.022 16.5128 313.665 16.6699C317.479 17.0231 321.747 17.4076 325.975 17.6086L325.976 18.3505L326.358 17.624C328.041 17.7013 329.708 17.7466 331.343 17.7442C338.203 17.7339 344.344 16.9031 347.419 14.1545C348.868 12.8521 349.48 11.1283 349.095 9.42185C349.079 9.36603 349.063 9.3182 349.046 9.26239L349.086 9.17458Z" fill="#69FF5D" stroke="#69FF5D" stroke-width="0.5" stroke-linejoin="round"/>
</g>
<defs>
<clipPath id="clip0_192_50">
<rect width="350.062" height="81.3934" fill="white" transform="translate(0 0.525055) rotate(-0.0859382)"/>
</clipPath>
</defs>
</svg>
